<?xml version="1.0" encoding="UTF-8" standalone="no"?>
<!-- Created with Inkscape (http://www.inkscape.org/) -->

<svg
   width="15.886498mm"
   height="15.886498mm"
   viewBox="0 0 15.886498 15.886498"
   version="1.1"
   id="svg1"
   xmlns:xlink="http://www.w3.org/1999/xlink"
   xmlns="http://www.w3.org/2000/svg"
   xmlns:svg="http://www.w3.org/2000/svg">
  <defs
     id="defs1">
    <linearGradient
       id="linearGradient950">
      <stop
         style="stop-color:#aeedff;stop-opacity:1;"
         offset="0.90692639"
         id="stop949" />
      <stop
         style="stop-color:#3158b2;stop-opacity:0;"
         offset="1"
         id="stop950" />
    </linearGradient>
    <linearGradient
       id="swatch946">
      <stop
         style="stop-color:#3158b2;stop-opacity:1;"
         offset="0"
         id="stop946" />
    </linearGradient>
    <linearGradient
       id="swatch86">
      <stop
         style="stop-color:#000000;stop-opacity:1;"
         offset="0"
         id="stop86" />
    </linearGradient>
    <linearGradient
       id="swatch85">
      <stop
         style="stop-color:#000000;stop-opacity:1;"
         offset="0"
         id="stop85" />
    </linearGradient>
    <radialGradient
       xlink:href="#linearGradient950"
       id="radialGradient949"
       gradientUnits="userSpaceOnUse"
       cx="64.620003"
       cy="32.526688"
       fx="64.620003"
       fy="32.526688"
       r="7.9432511" />
  </defs>
  <g
     id="g948"
     style="display:inline"
     transform="translate(-54.278318,-58.654326)">
    <g
       id="g954">
      <text
         xml:space="preserve"
         style="font-style:normal;font-variant:normal;font-weight:bold;font-stretch:normal;font-size:19.7556px;font-family:'Noto Sans Wancho';-inkscape-font-specification:'Noto Sans Wancho Bold';display:none;fill:#aeedff;fill-opacity:1;stroke-width:0.264583"
         x="34.679707"
         y="62.964832"
         id="text3-5"
         transform="translate(4.862576,10.77652)"><tspan
           id="tspan3-0"
           style="font-style:normal;font-variant:normal;font-weight:bold;font-stretch:normal;font-family:'Noto Sans Wancho';-inkscape-font-specification:'Noto Sans Wancho Bold';fill:#aeedff;fill-opacity:1;stroke-width:0.264583"
           x="0"
           y="0">K</tspan></text>
      <text
         xml:space="preserve"
         style="font-style:normal;font-variant:normal;font-weight:bold;font-stretch:normal;font-size:19.7556px;font-family:'Noto Sans Wancho';-inkscape-font-specification:'Noto Sans Wancho Bold';display:none;fill:#aeedff;fill-opacity:1;stroke-width:0.264583"
         x="65.117638"
         y="62.92907"
         id="text4-8"
         transform="translate(4.862576,10.77652)"><tspan
           id="tspan4-4"
           style="font-style:normal;font-variant:normal;font-weight:bold;font-stretch:normal;font-family:'Noto Sans Wancho';-inkscape-font-specification:'Noto Sans Wancho Bold';fill:#aeedff;fill-opacity:1;stroke-width:0.264583"
           x="0"
           y="0">NTR</tspan></text>
      <path
         style="display:inline;fill:none;fill-opacity:1;stroke:url(#radialGradient949);stroke-width:0.0352778;stroke-linecap:butt;stroke-linejoin:miter;stroke-dasharray:none;stroke-dashoffset:0;stroke-opacity:1;paint-order:normal"
         id="path948"
         d="m 72.409094,33.805426 c -0.706038,3.299448 -3.952533,5.402318 -7.25225,4.697539 -3.299716,-0.704779 -5.403824,-3.950473 -4.700304,-7.250458 0.703521,-3.299985 3.948412,-5.40533 7.248665,-4.703068 3.300253,0.702262 5.406836,3.946349 4.705832,7.24687 z m 0.103716,-1.371989 c -0.122368,3.371924 -2.954382,6.006595 -6.326352,5.885513 -3.37197,-0.121083 -6.007721,-2.952092 -5.887924,-6.324108 0.119796,-3.372016 2.9498,-6.008846 6.321861,-5.890336 3.372062,0.118511 6.009971,2.947509 5.892746,6.319615 z m -0.136102,-1.369155 c 0.465019,3.341946 -1.866464,6.428364 -5.208232,6.894658 -3.341768,0.466293 -6.429075,-1.864013 -6.896644,-5.205603 -0.467568,-3.34159 1.861561,-6.429786 5.202972,-6.898628 3.341412,-0.468843 6.430495,1.859108 6.900612,5.200341 z m -0.371786,-1.324721 c 1.038278,3.210424 -0.721835,6.654811 -3.931863,7.694312 -3.210028,1.039502 -6.655085,-0.719297 -7.695811,-3.928928 -1.040726,-3.209631 0.716759,-6.655359 3.925993,-7.697309 3.209234,-1.04195 6.655632,0.714221 7.698806,3.923057 z m -0.596173,-1.240036 c 1.579988,2.981356 0.444727,6.679055 -2.536026,8.26018 -2.980753,1.581125 -6.678884,0.447274 -8.261146,-2.532876 -1.582261,-2.980149 -0.449821,-6.678713 2.529725,-8.262111 2.979546,-1.583398 6.678541,-0.452368 8.263075,2.526574 z m -0.802446,-1.117672 c 2.073692,2.6617 1.597776,6.500359 -1.063133,8.575065 -2.660909,2.074706 -6.499748,1.600255 -8.575469,-1.059863 -2.075721,-2.660117 -1.602734,-6.499137 1.056592,-8.575873 2.659326,-2.076735 6.498526,-1.605212 8.576275,1.053322 z m -0.984336,-0.961349 c 2.504386,2.26117 2.702277,6.124153 0.442063,8.629402 -2.260215,2.505249 -6.123122,2.704613 -8.629233,0.445353 -2.50611,-2.259259 -2.706948,-6.122089 -0.448644,-8.629061 2.258303,-2.506972 6.121056,-2.709283 8.62889,-0.451936 z m -1.136319,-0.775816 c 2.858987,1.791936 3.724672,5.561868 1.933827,8.421538 -1.790846,2.859671 -5.560447,3.726793 -8.4208,1.937039 -2.860354,-1.789755 -3.728913,-5.559025 -1.94025,-8.420061 1.788664,-2.861036 5.557602,-3.731033 8.41932,-1.94346 z m -1.253775,-0.566709 c 3.12672,1.268254 4.633894,4.830587 3.366833,7.95779 -1.267062,3.127203 -4.82882,4.635736 -7.956506,3.369867 -3.127686,-1.265869 -4.637577,-4.827052 -3.372901,-7.95522 1.264676,-3.128168 4.825282,-4.639418 7.953933,-3.375935 z m -1.333135,-0.340385 c 3.299448,0.706038 5.402318,3.952533 4.697539,7.25225 -0.704779,3.299716 -3.950473,5.403824 -7.250458,4.700304 -3.299985,-0.703521 -5.40533,-3.948412 -4.703068,-7.248665 0.702262,-3.300253 3.946349,-5.406836 7.24687,-4.705832 z m -1.371989,-0.103716 c 3.371924,0.122368 6.006595,2.954382 5.885513,6.326352 -0.121083,3.37197 -2.952092,6.007721 -6.324108,5.887924 -3.372016,-0.119796 -6.008846,-2.9498 -5.890336,-6.321861 0.118511,-3.372062 2.947509,-6.009971 6.319615,-5.892746 z m -1.369155,0.136102 c 3.341946,-0.465019 6.428364,1.866464 6.894658,5.208232 0.466293,3.341768 -1.864013,6.429075 -5.205603,6.896644 -3.34159,0.467568 -6.429786,-1.861561 -6.898628,-5.202972 -0.468843,-3.341412 1.859108,-6.430495 5.200341,-6.900612 z m -1.324721,0.371786 c 3.210424,-1.038278 6.654811,0.721835 7.694312,3.931863 1.039502,3.210028 -0.719297,6.655085 -3.928928,7.695811 -3.209631,1.040726 -6.655359,-0.716759 -7.697309,-3.925993 -1.04195,-3.209234 0.714221,-6.655632 3.923057,-7.698806 z m -1.240036,0.596173 c 2.981356,-1.579988 6.679055,-0.444727 8.26018,2.536026 1.581125,2.980753 0.447274,6.678884 -2.532876,8.261146 -2.980149,1.582261 -6.678713,0.449821 -8.262111,-2.529725 -1.583398,-2.979546 -0.452368,-6.678541 2.526574,-8.263075 z m -1.117672,0.802446 c 2.6617,-2.073692 6.500359,-1.597776 8.575065,1.063133 2.074706,2.660909 1.600255,6.499748 -1.059863,8.575469 -2.660117,2.075721 -6.499137,1.602734 -8.575873,-1.056592 -2.076735,-2.659326 -1.605212,-6.498526 1.053322,-8.576275 z m -0.961349,0.984336 c 2.26117,-2.504386 6.124153,-2.702277 8.629402,-0.442063 2.505249,2.260215 2.704613,6.123122 0.445353,8.629233 -2.259259,2.50611 -6.122089,2.706948 -8.629061,0.448644 -2.506972,-2.258303 -2.709283,-6.121056 -0.451936,-8.62889 z M 57.738,28.66104 c 1.791936,-2.858987 5.561868,-3.724672 8.421538,-1.933827 2.859671,1.790846 3.726793,5.560447 1.937039,8.4208 -1.789755,2.860354 -5.559025,3.728913 -8.420061,1.94025 -2.861036,-1.788664 -3.731033,-5.557602 -1.94346,-8.41932 z m -0.566709,1.253775 c 1.268254,-3.12672 4.830587,-4.633894 7.95779,-3.366833 3.127203,1.267062 4.635736,4.82882 3.369867,7.956506 -1.265869,3.127686 -4.827052,4.637577 -7.95522,3.372901 -3.128168,-1.264676 -4.639418,-4.825282 -3.375935,-7.953933 z m -0.340385,1.333135 c 0.706038,-3.299448 3.952533,-5.402318 7.25225,-4.697539 3.299716,0.704779 5.403824,3.950473 4.700304,7.250458 -0.703521,3.299985 -3.948412,5.40533 -7.248665,4.703068 -3.300253,-0.702262 -5.406836,-3.946349 -4.705832,-7.24687 z m -0.103716,1.371989 c 0.122368,-3.371924 2.954382,-6.006595 6.326352,-5.885513 3.37197,0.121083 6.007721,2.952092 5.887924,6.324108 -0.119796,3.372016 -2.9498,6.008846 -6.321861,5.890336 -3.372062,-0.118511 -6.009971,-2.947509 -5.892746,-6.319615 z m 0.136102,1.369155 c -0.465019,-3.341946 1.866464,-6.428364 5.208232,-6.894658 3.341768,-0.466293 6.429075,1.864013 6.896644,5.205603 0.467568,3.34159 -1.861561,6.429786 -5.202972,6.898628 -3.341412,0.468843 -6.430495,-1.859108 -6.900612,-5.200341 z m 0.371786,1.324721 c -1.038278,-3.210424 0.721835,-6.654811 3.931863,-7.694312 3.210028,-1.039502 6.655085,0.719297 7.695811,3.928928 1.040726,3.209631 -0.716759,6.655359 -3.925993,7.697309 -3.209234,1.04195 -6.655632,-0.714221 -7.698806,-3.923057 z m 0.596173,1.240036 c -1.579988,-2.981356 -0.444727,-6.679055 2.536026,-8.26018 2.980753,-1.581125 6.678884,-0.447274 8.261146,2.532876 1.582261,2.980149 0.449821,6.678713 -2.529725,8.262111 -2.979546,1.583398 -6.678541,0.452368 -8.263075,-2.526574 z m 0.802446,1.117672 c -2.073692,-2.6617 -1.597776,-6.500359 1.063133,-8.575065 2.660909,-2.074706 6.499748,-1.600255 8.575469,1.059863 2.075721,2.660117 1.602734,6.499137 -1.056592,8.575873 -2.659326,2.076735 -6.498526,1.605212 -8.576275,-1.053322 z m 0.984336,0.961349 c -2.504386,-2.26117 -2.702277,-6.124153 -0.442063,-8.629402 2.260215,-2.505249 6.123122,-2.704613 8.629233,-0.445353 2.50611,2.259259 2.706948,6.122089 0.448644,8.629061 -2.258303,2.506972 -6.121056,2.709283 -8.62889,0.451936 z m 1.136319,0.775816 C 57.895365,37.616752 57.02968,33.84682 58.820525,30.98715 c 1.790846,-2.859671 5.560447,-3.726793 8.4208,-1.937039 2.860354,1.789755 3.728913,5.559025 1.94025,8.420061 -1.788664,2.861036 -5.557602,3.731033 -8.41932,1.94346 z m 1.253775,0.566709 c -3.12672,-1.268254 -4.633894,-4.830587 -3.366833,-7.95779 1.267062,-3.127203 4.82882,-4.635736 7.956506,-3.369867 3.127686,1.265869 4.637577,4.827052 3.372901,7.95522 -1.264676,3.128168 -4.825282,4.639418 -7.953933,3.375935 z m 1.333135,0.340385 c -3.299448,-0.706038 -5.402318,-3.952533 -4.697539,-7.25225 0.704779,-3.299716 3.950473,-5.403824 7.250458,-4.700304 3.299985,0.703521 5.40533,3.948412 4.703068,7.248665 -0.702262,3.300253 -3.946349,5.406836 -7.24687,4.705832 z m 1.371989,0.103716 c -3.371924,-0.122368 -6.006595,-2.954382 -5.885513,-6.326352 0.121083,-3.37197 2.952092,-6.007721 6.324108,-5.887924 3.372016,0.119796 6.008846,2.9498 5.890336,6.321861 -0.118511,3.372062 -2.947509,6.009971 -6.319615,5.892746 z m 1.369155,-0.136102 c -3.341946,0.465019 -6.428364,-1.866464 -6.894658,-5.208232 -0.466293,-3.341768 1.864013,-6.429075 5.205603,-6.896644 3.34159,-0.467568 6.429786,1.861561 6.898628,5.202972 0.468843,3.341412 -1.859108,6.430495 -5.200341,6.900612 z m 1.324721,-0.371786 c -3.210424,1.038278 -6.654811,-0.721835 -7.694312,-3.931863 -1.039502,-3.210028 0.719297,-6.655085 3.928928,-7.695811 3.209631,-1.040726 6.655359,0.716759 7.697309,3.925993 1.04195,3.209234 -0.714221,6.655632 -3.923057,7.698806 z m 1.240036,-0.596173 c -2.981356,1.579988 -6.679055,0.444727 -8.26018,-2.536026 -1.581125,-2.980753 -0.447274,-6.678884 2.532876,-8.261146 2.980149,-1.582261 6.678713,-0.449821 8.262111,2.529725 1.583398,2.979546 0.452368,6.678541 -2.526574,8.263075 z m 1.117672,-0.802446 c -2.6617,2.073692 -6.500359,1.597776 -8.575065,-1.063133 -2.074706,-2.660909 -1.600255,-6.499748 1.059863,-8.575469 2.660117,-2.075721 6.499137,-1.602734 8.575873,1.056592 2.076735,2.659326 1.605212,6.498526 -1.053322,8.576275 z m 0.961349,-0.984336 c -2.26117,2.504386 -6.124153,2.702277 -8.629402,0.442063 -2.505249,-2.260215 -2.704613,-6.123122 -0.445353,-8.629233 2.259259,-2.50611 6.122089,-2.706948 8.629061,-0.448644 2.506972,2.258303 2.709283,6.121056 0.451936,8.62889 z M 71.502,36.392336 c -1.791936,2.858987 -5.561868,3.724672 -8.421538,1.933827 -2.859671,-1.790846 -3.726793,-5.560447 -1.937039,-8.4208 1.789755,-2.860354 5.559025,-3.728913 8.420061,-1.94025 2.861036,1.788664 3.731033,5.557602 1.94346,8.41932 z m 0.566709,-1.253775 c -1.268254,3.12672 -4.830587,4.633894 -7.95779,3.366833 -3.127203,-1.267062 -4.635736,-4.82882 -3.369867,-7.956506 1.265869,-3.127686 4.827052,-4.637577 7.95522,-3.372901 3.128168,1.264676 4.639418,4.825282 3.375935,7.953933 z"
         transform="translate(-2.3984327,34.070887)" />
    </g>
  </g>
</svg>
